<?xml version="1.0" encoding="UTF-8" standalone="no"?>
<svg width="197px" height="32px" viewBox="0 0 197 32" version="1.1" xmlns="http://www.w3.org/2000/svg" xmlns:xlink="http://www.w3.org/1999/xlink">
    <!-- Generator: Sketch 39.1 (31720) - http://www.bohemiancoding.com/sketch -->
    <title>Page 1</title>
    <desc>Created with Sketch.</desc>
    <defs>
        <polygon id="path-1" points="23.6987265 25.5515873 0 25.5515873 0 0.0448085317 23.6987265 0.0448085317"></polygon>
        <polygon id="path-3" points="0 31.1983948 196.643733 31.1983948 196.643733 0 0 0"></polygon>
    </defs>
    <g id="Page-1" stroke="none" stroke-width="1" fill="none" fill-rule="evenodd">
        <g id="iPhone-6-Copy-2" transform="translate(-89.000000, -20.000000)">
            <g id="Page-1" transform="translate(89.000000, 20.000000)">
                <g id="Group-3" transform="translate(0.000000, 5.646808)">
                    <mask id="mask-2" fill="white">
                        <use xlink:href="#path-1"></use>
                    </mask>
                    <g id="Clip-2"></g>
                    <path d="M3.59716532,0.0448085317 C5.00771744,0.0448085317 5.7130403,0.606943452 5.7130403,1.73121329 L6.13623402,1.73121329 C5.99516944,3.48019147 5.78352578,4.74499504 5.50149024,5.52553075 C5.50149024,5.80669147 5.7130403,6.50936012 6.13623402,7.63362996 C5.85410487,9.88207639 5.64255482,11.0064395 5.50149024,11.0064395 C5.64255482,11.2406935 5.7130403,11.5919812 5.7130403,12.0603958 C6.70049231,10.936126 8.11123164,8.47683234 9.94497747,4.68232837 C10.5405002,4.04232639 11.175244,3.05859028 11.8493024,1.73121329 C12.366664,1.3096121 12.9309223,1.09885813 13.5420773,1.09885813 C13.5733417,0.817697421 13.7144063,0.67716369 13.9653646,0.67716369 C15.0937876,0.67716369 15.6581395,1.3096121 15.6581395,2.57441567 C15.4542651,2.87124306 15.2426215,3.78466567 15.0233021,5.31487004 C14.8822375,5.31487004 14.811752,5.38509028 14.811752,5.52553075 L15.0233021,5.52553075 C14.913502,5.82245139 14.7724374,6.73587401 14.6001084,8.26598512 L15.0233021,8.47683234 C14.6001084,9.60110218 14.3885583,10.3037708 14.3885583,10.584745 L14.811752,10.7955923 C14.811752,10.1866438 15.2348521,9.27312798 16.0812396,8.0551379 L17.1392707,5.9472252 C16.9982061,5.9472252 16.927627,5.87691171 16.927627,5.73637798 C17.4291691,5.73637798 18.134492,4.47166766 19.0436892,1.94206052 C20.877435,1.25515179 21.7944016,0.763237103 21.7944016,0.466409722 L22.852339,0.466409722 C23.4165973,0.669516865 23.6987265,1.16143155 23.6987265,1.94206052 L23.6987265,5.73637798 C23.6987265,5.87691171 23.628241,5.9472252 23.4871764,5.9472252 C23.4871764,6.08775893 23.5576619,6.15807242 23.6987265,6.15807242 C23.3538812,10.5145248 23.0011729,12.6928442 22.6406954,12.6928442 C22.6406954,12.833378 22.7112745,12.9035982 22.852339,12.9035982 C22.6642842,15.6359395 22.523126,17.1115903 22.4292389,17.3303641 L22.6406954,17.7520585 L22.2175953,20.7031736 L22.4292389,21.1247748 C22.2881744,21.6869097 22.2175953,22.1788244 22.2175953,22.6004256 L22.4292389,23.0220268 C22.0372161,24.7084315 21.6846015,25.5516339 21.3712078,25.5516339 L21.1595642,25.5516339 C18.9026246,25.0047927 17.7740144,24.0210565 17.7740144,22.6004256 L17.7740144,21.9679772 C17.7740144,21.6400962 17.8445935,21.3590288 17.9856581,21.1247748 C17.9856581,20.9842411 17.915079,20.9140208 17.7740144,20.9140208 C17.915079,19.6492173 18.0562372,19.0167688 18.1973018,19.0167688 L17.9856581,18.5952609 C18.1579871,16.9088562 18.4400227,16.0656538 18.8320455,16.0656538 C18.690981,15.6439593 18.5499164,15.4332054 18.4088518,15.4332054 C18.690981,14.7459236 18.8320455,14.1134752 18.8320455,13.5360466 C18.690981,13.5360466 18.6204019,13.4657331 18.6204019,13.3251994 L19.0436892,13.1143522 L18.8320455,12.6928442 L19.0436892,12.2711498 L18.8320455,12.2711498 L19.0436892,11.8496419 L19.0436892,11.4279474 L18.8320455,10.3740843 C18.9731101,10.3740843 19.0436892,10.3037708 19.0436892,10.1632371 L18.8320455,10.1632371 C19.1454392,9.17950099 19.3569892,8.68767956 19.4667893,8.68767956 L19.2552393,8.26598512 C19.2864101,7.98501091 19.4274747,7.84447718 19.678433,7.84447718 C19.5373684,7.57907639 19.4667893,7.29800893 19.4667893,7.0012748 L19.2552393,7.0012748 C18.4088518,9.34344147 17.9856581,10.6081518 17.9856581,10.7955923 C17.703529,10.936126 17.4918853,11.0064395 17.3509143,11.0064395 L17.3509143,11.6387946 C16.9588915,13.1377589 16.4652123,14.1918085 15.8696895,14.8007569 C15.8696895,14.9412907 15.940175,15.0116042 16.0812396,15.0116042 C15.2661166,16.7917292 14.4197292,18.0564395 13.5420773,18.8060149 L12.6957834,18.8060149 C10.7208794,17.6034117 9.73342742,16.4791419 9.73342742,15.4332054 L10.3681712,12.9035982 C10.2271066,12.9035982 10.1566211,12.833378 10.1566211,12.6928442 L10.3681712,12.6928442 L10.1566211,12.2711498 C10.187792,11.9901756 10.3288566,11.8496419 10.5798149,11.8496419 C10.5798149,11.7091081 10.5092358,11.6387946 10.3681712,11.6387946 L10.5798149,10.584745 L10.5798149,10.1632371 C10.3916663,10.1632371 9.615858,11.4279474 8.2522026,13.9575546 C7.78201856,15.5657192 7.35882485,16.6196756 6.98262145,17.1196101 C5.94817912,18.8060149 5.31343535,19.6492173 5.07829653,19.6492173 L3.59716532,19.6492173 C3.03290703,19.3681498 2.75068428,19.0167688 2.75068428,18.5952609 C2.6096197,18.5952609 2.53913422,18.6654812 2.53913422,18.8060149 C0.846359353,18.8060149 -2.80818658e-05,17.4708978 -2.80818658e-05,14.8007569 C0.141036491,13.6296736 0.282101063,12.9270982 0.423165635,12.6928442 L0.21161558,12.2711498 C0.493744725,11.5684812 0.634809297,11.0766597 0.634809297,10.7955923 L0.423165635,10.7955923 C0.877530224,5.93948512 1.30081755,3.12881052 1.69274679,2.36356845 L1.90439045,2.36356845 L1.69274679,1.94206052 L1.69274679,1.52036607 C1.69274679,0.817697421 2.04545502,0.325875992 2.75068428,0.0448085317 L3.59716532,0.0448085317 Z" id="Fill-1" fill="#FEFEFE" mask="url(#mask-2)"></path>
                </g>
                <path d="M30.587386,10.750821 L30.587386,11.1724222 L30.7990297,12.2263786 L30.3757423,12.2263786 L30.3757423,13.7019361 C29.7487679,14.8262992 29.2549951,16.7234579 28.8946111,19.3935988 C29.0356757,19.6746663 29.1062548,19.8854202 29.1062548,20.0260472 C28.9963611,20.5880889 28.8552965,20.8692496 28.6830611,20.8692496 C28.9022868,21.4312913 29.1139305,21.712452 29.3178049,21.712452 C31.5120282,20.2287813 32.922674,18.2616821 33.5496484,15.8100353 L33.9729357,16.0208825 L34.1845794,16.0208825 C34.3098245,14.8965194 34.5919537,14.3344778 35.0309668,14.3344778 C35.0309668,14.1938508 34.9603878,14.1236306 34.8193232,14.1236306 C35.1014523,12.952454 35.454067,12.1092516 35.8773543,11.5940234 L35.6657106,11.1724222 L35.8773543,9.90761865 C35.5794057,9.90761865 35.2267911,9.62655119 34.8193232,9.06441627 C34.537194,9.06441627 33.9023567,8.57259484 32.9149046,7.58885873 C32.5229754,7.60461865 31.888138,8.65848175 31.0105797,10.750821 L30.587386,10.750821 Z M32.4918045,3.1619996 C32.6328691,3.1619996 32.8444192,3.09177937 33.1265483,2.95115238 C33.910126,2.95115238 34.5448697,3.30253333 35.0309668,4.00520198 C35.2971829,4.00520198 35.5088266,4.14573571 35.6657106,4.42689643 C37.4367403,4.28626944 38.4947714,4.21604921 38.8396167,4.21604921 C39.6860041,4.65331706 40.1797769,5.49651944 40.3207479,6.74565635 C40.4619061,6.74565635 40.6029706,6.95641032 40.7440352,7.37801151 L40.5323916,7.7996127 C40.6734561,8.03377341 40.7440352,8.31493413 40.7440352,8.64281508 C40.7440352,8.92388254 40.6029706,9.06441627 40.3207479,9.06441627 L40.5323916,9.48601746 C40.5323916,11.7503171 38.7691312,15.7554817 35.2424233,21.5016048 C33.1107289,24.3122794 31.417954,25.7176167 30.1641923,25.7176167 C30.1641923,25.8581504 30.0937068,25.9283706 29.9526422,25.9283706 C29.9526422,25.6473032 29.8115777,25.5067694 29.5293549,25.5067694 L29.5293549,25.7176167 C27.1155313,24.7491742 25.4227565,23.2033964 24.4510303,21.0800036 C24.3099657,20.1584679 24.2395739,19.2454183 24.2395739,18.3396425 L24.2395739,18.1287952 L24.662674,16.6532377 C24.5216094,16.6532377 24.4510303,16.5829242 24.4510303,16.4423905 L24.662674,16.4423905 L24.4510303,16.0208825 L24.4510303,15.8100353 C24.576369,14.9668329 24.7880127,14.5451385 25.0859613,14.5451385 L24.8743176,14.1236306 C26.0027406,10.2512595 27.1312572,7.30005119 28.2598674,5.27009881 C28.2598674,3.86466825 29.5293549,3.09177937 32.0685172,2.95115238 L32.4918045,3.1619996 Z" id="Fill-4" fill="#FEFEFE"></path>
                <path d="M50.6890501,4.09892222 L51.3237939,4.52052341 L51.5354376,4.52052341 L51.9586313,4.30976944 L53.6513125,5.36372579 C54.0745063,6.36312857 54.2861499,6.92535675 54.2861499,7.0500373 C54.0822756,7.0500373 53.8001464,7.54195198 53.4397625,8.5256881 C51.4648585,10.3527198 50.4774065,11.6877437 50.4774065,12.530946 C49.9444127,12.8120135 49.3096689,13.9361901 48.5730815,15.9037556 L48.3614379,15.9037556 C48.3614379,15.7631286 48.2909524,15.6929083 48.1498878,15.6929083 L48.3614379,16.1145095 C47.029047,18.0508349 46.1826595,19.5261127 45.8223692,20.5412754 L45.6107255,20.5412754 L45.6107255,20.7521226 L45.8223692,21.1737238 C45.6184012,21.1737238 45.4067576,21.454698 45.1875318,22.0169262 C45.469661,22.0169262 45.6107255,22.2276802 45.6107255,22.6492813 L46.2454693,22.6492813 C47.7814538,21.7277456 48.9098767,20.7440095 49.631019,19.698073 C50.1795515,19.698073 51.096518,18.9954044 52.381825,17.5900671 C52.5228896,17.5900671 52.5934687,17.6603806 52.5934687,17.8009143 L53.0165688,17.5900671 L53.4397625,17.5900671 L53.2282124,18.0116683 C53.2282124,18.2927357 53.4397625,18.4332694 53.8629562,18.4332694 L54.2861499,18.2225155 C54.8504082,18.3788091 55.2736955,18.7300968 55.5557311,19.2764718 C55.4458374,19.8386067 55.3048664,20.1196742 55.1325374,20.1196742 L55.3440874,20.5412754 C53.7923771,21.5250115 53.0165688,22.2979004 53.0165688,22.8601286 C51.3237939,23.5781841 50.4774065,24.351073 50.4774065,25.1788885 L50.4774065,25.3897357 L50.9006938,26.0220909 L50.6890501,26.0220909 C50.2658564,25.8815571 50.0542128,25.7410234 50.0542128,25.6004897 C49.4899545,25.9906643 48.0087297,26.2717317 45.6107255,26.4436921 C44.1842604,25.9437575 43.2673874,25.2410889 42.8599196,24.3356861 C41.7627611,24.3356861 40.70473,23.1411028 39.6860135,20.7521226 L39.8976571,20.7521226 L39.6860135,20.3305214 C39.8270781,20.0648409 39.8976571,19.7836802 39.8976571,19.487319 C39.7565926,19.487319 39.6860135,19.4170988 39.6860135,19.2764718 C39.8270781,19.2764718 39.8976571,19.2062516 39.8976571,19.0657179 C39.6154344,19.0657179 39.4743698,18.9251841 39.4743698,18.6441167 L39.4743698,18.4332694 C40.1169765,15.4509143 41.174914,13.2024679 42.6483695,11.6877437 C42.820605,11.1256087 43.2438923,10.633694 43.9179507,10.2120929 C43.9179507,9.80625159 44.2706589,9.59540437 44.9758881,9.57964444 L44.7643381,9.15813651 L44.7643381,8.94728929 C45.265693,8.94728929 46.0416886,8.38515437 47.0918567,7.26088452 C48.2045539,6.15246786 49.4037431,5.16863849 50.6890501,4.30976944 L50.6890501,4.09892222 Z" id="Fill-6" fill="#FEFEFE"></path>
                <path d="M64.8659086,6.83934861 L64.6543586,7.2609498 L64.6543586,8.31490615 C64.3094196,8.31490615 64.0272905,9.15810853 63.8079711,10.8445133 C63.525842,11.0944339 62.8910046,13.6240411 61.9036462,18.4332415 C61.6997719,18.4332415 61.3470636,19.2764438 60.8456151,20.9628486 L60.634065,20.9628486 L60.8456151,21.3845431 L60.8456151,21.595297 C60.2813568,21.595297 59.9993213,22.2979657 59.9993213,23.703303 C60.1402922,23.9843704 60.2108713,24.1951244 60.2108713,24.3356581 C60.0698068,24.3356581 59.5054549,24.6870391 58.5180965,25.3897077 C57.3895799,25.2645609 56.8253216,24.702426 56.8253216,23.703303 C56.4803827,23.2817018 56.1981599,23.0709478 55.9789342,23.0709478 L55.9789342,22.0168982 C55.696805,21.6574974 55.5557404,21.37643 55.5557404,21.1736958 C55.8691341,19.4562375 56.1511696,18.2616542 56.4021279,17.5900391 C56.2610633,17.3247315 56.1904842,17.0437573 56.1904842,16.74693 C56.4568875,16.4348089 56.6684376,15.732047 56.8253216,14.638924 C57.0445474,14.3578565 57.256191,14.2173228 57.4600654,14.2173228 L57.4600654,14.0064756 C57.4600654,13.7255014 57.3190008,13.5848744 57.0368716,13.5848744 L59.1528402,5.78529901 C59.1528402,5.19211052 60.1402922,4.6299756 62.1151963,4.09889425 C63.2437128,4.77041607 64.1606794,5.68393194 64.8659086,6.83934861" id="Fill-8" fill="#FEFEFE"></path>
                <path d="M71.072806,18.2225248 L71.4959997,18.2225248 C74.3171975,16.1145188 76.0805515,14.0065129 76.7858743,11.8985069 C77.0680035,11.8985069 77.2091617,11.336372 77.2091617,10.2121022 C77.1462583,8.38516369 76.4409354,7.47174107 75.0930995,7.47174107 C73.8236119,7.47174107 72.8360663,9.29867956 72.1308371,12.9524633 C71.8486143,14.3578938 71.4959997,15.6929177 71.072806,16.9577212 L71.072806,18.2225248 Z M75.0930995,4.73128671 L75.5163868,4.52043948 L76.1511306,4.52043948 C77.9691506,4.77045337 79.943961,5.96503671 82.075749,8.10409623 C82.075749,8.66623115 82.2873927,9.22836607 82.7105864,9.79050099 C82.5695218,11.336372 82.4284572,12.1092609 82.2873927,12.1092609 C82.4284572,12.3903284 82.4989427,12.6011756 82.4989427,12.7417093 C82.4989427,14.20962 81.864199,15.8960248 80.5946178,17.8009236 L76.1511306,22.4385367 C76.1511306,22.7196042 75.6573578,23.0708919 74.6699058,23.4924931 C74.5601057,23.9762946 73.5020746,24.7491835 71.4959997,25.8113462 C71.4959997,26.2950546 70.5085477,26.927503 68.5336437,27.708505 C67.8595853,27.708505 67.295327,27.9895724 66.8408688,28.5517073 L66.6292251,28.5517073 L66.6292251,28.1301062 L65.7828377,28.1301062 L65.3597376,28.3408601 C65.3597376,27.9192589 65.1480939,27.708505 64.7249938,27.708505 L64.7249938,27.2869038 C64.7249938,26.9744097 64.5133502,26.0608938 64.0900628,24.5464494 C64.1683176,24.0466081 64.7326695,23.273626 65.7828377,22.2276895 C64.7953857,21.3061538 64.3017065,20.5332649 64.3017065,19.9089296 L64.5133502,19.4873284 C64.3722856,19.2062609 64.3017065,18.9954137 64.3017065,18.85488 C66.1355459,12.1250208 67.334548,8.40092361 67.8988999,7.68258829 C67.8988999,6.0118502 69.4506102,4.95789385 72.5539372,4.52043948 C73.2904309,4.37999901 73.7137182,4.30977877 73.8236119,4.30977877 C74.6699058,4.41907242 75.0930995,4.55960615 75.0930995,4.73128671 L75.0930995,4.73128671 Z" id="Fill-10" fill="#FEFEFE"></path>
                <path d="M89.0584547,12.648045 L89.2700984,12.648045 C88.9879692,13.1632732 88.635261,14.2875431 88.2120673,16.0208546 L88.2120673,16.6532097 C89.7637776,16.2941819 90.5395859,15.9428942 90.5395859,15.5991601 C90.5395859,15.4587196 90.610165,15.3884062 90.7512296,15.3884062 C90.7512296,15.2478724 90.6807441,15.1776522 90.5395859,15.1776522 L90.7512296,14.3344498 C90.7512296,14.1158625 90.610165,13.4835073 90.3280359,12.4371978 L90.5395859,12.4371978 C90.3827019,11.1723942 90.1712454,10.5400391 89.9048421,10.5400391 C89.9048421,11.0552673 89.622713,11.7579359 89.0584547,12.648045 L89.0584547,12.648045 Z M90.7512296,9.32539683e-06 L93.0787482,9.32539683e-06 C93.0787482,0.203116468 93.5020355,0.554404167 94.348423,1.05405893 L94.348423,1.2648129 C94.2072648,1.54588036 94.1367793,1.75663433 94.1367793,1.89726131 L94.348423,1.89726131 L94.1367793,2.31876925 L94.1367793,2.74046369 C94.1367793,2.88099742 94.2072648,2.95121766 94.348423,2.95121766 C94.348423,3.09175139 94.2778439,3.16197163 94.1367793,3.16197163 C94.2778439,4.52049544 94.5598794,5.43401131 94.9831667,5.90242599 L94.9831667,7.79958472 C95.8137347,12.5777315 96.4484785,14.966805 96.8875853,14.966805 L97.7339727,14.966805 L97.7339727,15.5991601 C97.7339727,16.1613883 97.2401063,16.9342772 96.2526543,17.9180133 C96.2526543,19.1359101 96.464298,20.6817812 96.8875853,22.5556264 L96.6759416,22.5556264 L96.8875853,22.9772276 C96.8875853,23.4141224 96.8170062,23.7655034 96.6759416,24.0311839 L96.8875853,25.0852335 C96.8875853,25.7878089 96.534877,26.4203506 95.8295542,26.9823923 C95.2024861,26.9823923 94.2150341,26.3500371 92.8671046,25.0852335 C91.7386816,25.0852335 91.1743297,23.8907435 91.1743297,21.5015768 C91.1743297,20.5333208 91.0333587,19.8305589 90.7512296,19.3935708 C88.3531318,20.6583744 86.7309361,21.2908228 85.8845486,21.2908228 C85.3514612,23.5393625 84.6461383,24.6636323 83.7684864,24.6636323 C82.6717024,22.9772276 81.7547358,22.1340252 81.0178677,22.1340252 C81.0178677,21.7277177 80.8768031,21.3062097 80.5945804,20.8692216 C80.5945804,20.1819399 81.0882596,19.268797 82.0757116,18.1287673 C82.6246184,15.8334141 83.4706314,14.0064756 84.6149675,12.648045 L84.6149675,12.4371978 L84.4034174,12.0155966 C85.7511598,10.985047 86.7386118,9.29864226 87.3656798,6.95638234 L87.7888736,6.95638234 L87.7888736,6.11327321 C88.3531318,4.70784266 88.7763256,3.02153115 89.0584547,1.05405893 L90.7512296,9.32539683e-06 Z" id="Fill-12" fill="#FEFEFE"></path>
                <path d="M104.504941,18.2225248 L104.928135,18.2225248 C107.749426,16.1145188 109.51278,14.0065129 110.218103,11.8985069 C110.500232,11.8985069 110.641297,11.336372 110.641297,10.2121022 C110.578487,8.38516369 109.873164,7.47174107 108.525328,7.47174107 C107.255747,7.47174107 106.268295,9.29867956 105.562972,12.9524633 C105.280843,14.3578938 104.928135,15.6929177 104.504941,16.9577212 L104.504941,18.2225248 Z M108.525328,4.73128671 L108.948522,4.52043948 L109.583266,4.52043948 C111.401379,4.77045337 113.37619,5.96503671 115.507978,8.10409623 C115.507978,8.66623115 115.719621,9.22836607 116.142722,9.79050099 C116.001657,11.336372 115.860592,12.1092609 115.719621,12.1092609 C115.860592,12.3903284 115.931172,12.6011756 115.931172,12.7417093 C115.931172,14.20962 115.296334,15.8960248 114.026847,17.8009236 L109.583266,22.4385367 C109.583266,22.7196042 109.089587,23.0708919 108.102135,23.4924931 C107.992241,23.9762946 106.934303,24.7491835 104.928135,25.8113462 C104.928135,26.2950546 103.940776,26.927503 101.965779,27.708505 C101.29172,27.708505 100.727556,27.9895724 100.273004,28.5517073 L100.061454,28.5517073 L100.061454,28.1301062 L99.2150665,28.1301062 L98.7918728,28.3408601 C98.7918728,27.9192589 98.5802291,27.708505 98.157129,27.708505 L98.157129,27.2869038 C98.157129,26.9744097 97.9454853,26.0608938 97.5222916,24.5464494 C97.6005464,24.0466081 98.1648047,23.273626 99.2150665,22.2276895 C98.2275209,21.3061538 97.7339353,20.5332649 97.7339353,19.9089296 L97.9454853,19.4873284 C97.8044208,19.2062609 97.7339353,18.9954137 97.7339353,18.85488 C99.5676811,12.1250208 100.766777,8.40092361 101.331035,7.68258829 C101.331035,6.0118502 102.882745,4.95789385 105.986072,4.52043948 C106.72266,4.37999901 107.145947,4.30977877 107.255747,4.30977877 C108.102135,4.41907242 108.525328,4.55960615 108.525328,4.73128671 L108.525328,4.73128671 Z" id="Fill-14" fill="#FEFEFE"></path>
                <path d="M129.261689,3.16200893 C130.280406,3.30254266 130.91515,3.44307639 131.166108,3.58361012 C131.432418,3.44307639 131.714547,3.37285615 132.012495,3.37285615 C133.078109,3.5291498 133.64246,3.81012401 133.70527,4.21605853 C133.501396,5.19979464 133.148688,5.69161607 132.647239,5.69161607 C132.083074,5.75418948 131.800852,5.96503671 131.800852,6.32397123 L130.742914,6.11321726 C129.050139,6.95632639 126.722621,7.79952877 123.760265,8.64273115 L123.548621,10.5399831 L123.971815,10.7508304 C124.002986,10.4697629 124.14405,10.3291359 124.395008,10.3291359 C124.536073,10.3291359 124.606652,10.3994494 124.606652,10.5399831 L126.934171,9.90762798 C129.191204,10.1886954 130.31972,10.3994494 130.31972,10.5399831 C130.460785,10.7742371 130.531271,11.0553046 130.531271,11.3831855 L130.531271,11.5940327 C130.249141,11.5940327 129.684883,11.9454137 128.838496,12.6480823 L128.838496,12.8587431 L128.626946,12.8587431 C128.485881,12.8587431 128.415396,12.7885228 128.415396,12.6480823 L123.971815,14.5451478 C123.971815,14.6856815 123.901236,14.8965288 123.760265,15.1776895 L123.337071,14.9668423 C122.49059,14.9668423 121.855846,16.5127133 121.432652,19.6043621 L121.221102,19.6043621 C121.221102,19.7448958 121.291588,19.8152093 121.432652,19.8152093 C121.275862,21.0800129 121.134797,21.852995 121.009459,22.1339692 C121.150523,22.1339692 121.221102,22.2042827 121.221102,22.3448165 C122.49059,22.3448165 123.125427,21.9934355 123.125427,21.2907669 C123.266492,21.2907669 123.337071,21.3610804 123.337071,21.5016141 C125.59401,21.0016796 126.722621,20.3693244 126.722621,19.6043621 L127.145814,19.6043621 C127.145814,19.8070962 127.286785,20.0882569 127.568914,20.4475645 L127.568914,20.6584117 C127.568914,22.157376 126.017298,23.7735605 122.913877,25.5067788 C122.615929,25.92838 121.910606,26.3499812 120.797909,26.7715823 L120.797909,26.9824296 C119.246198,26.7950823 118.117588,26.3733879 117.412359,25.717626 L117.200715,25.717626 C117.200715,25.8581597 117.130136,25.92838 116.989165,25.92838 C115.939278,25.0069375 115.304534,24.0934216 115.084747,23.1880188 C115.21046,22.9068581 115.351431,22.1339692 115.50794,20.8692589 L115.29639,20.8692589 C115.860649,19.8070962 116.142778,18.2616915 116.142778,16.2315526 L116.565971,16.2315526 L116.354328,15.8100446 L116.354328,15.3883502 C116.385499,14.6856815 116.526657,14.3344871 116.777521,14.3344871 C116.495392,13.8659792 116.354328,13.5146915 116.354328,13.2804375 C116.808786,13.2804375 117.23198,12.1561677 117.624003,9.90762798 L118.047103,9.90762798 L117.835553,9.48593353 C118.148853,7.65908829 118.501561,6.46450496 118.89349,5.90246329 C118.89349,5.76192956 118.822911,5.69161607 118.68194,5.69161607 C118.713205,5.28568155 119.065819,4.93439385 119.739878,4.63756647 C119.739878,4.27863194 120.022007,4.06778472 120.586265,4.00521131 C121.322759,4.00521131 122.239725,4.35659226 123.337071,5.05926091 C124.324523,4.84076687 124.818202,4.55960615 124.818202,4.21605853 L125.241396,4.4268125 L128.415396,3.37285615 L128.415396,3.58361012 L129.261689,3.16200893 Z" id="Fill-16" fill="#FEFEFE"></path>
                <mask id="mask-4" fill="white">
                    <use xlink:href="#path-3"></use>
                </mask>
                <g id="Clip-19"></g>
                <polygon id="Fill-18" fill="#EA5B2E" mask="url(#mask-4)" points="135.969867 26.4144663 142.47915 26.4144663 142.47915 2.52298611 135.969867 2.52298611"></polygon>
                <polygon id="Fill-20" fill="#EA5B2E" mask="url(#mask-4)" points="168.447958 2.52298611 168.447958 26.4144663 162.795078 26.4144663 152.34591 13.3424048 152.34591 26.4144663 145.836533 26.4144663 145.836533 2.52298611 151.489413 2.52298611 161.938675 15.5950476 161.938675 2.52298611"></polygon>
                <path d="M186.091813,17.3698478 L183.111204,9.55395298 L180.096335,17.3698478 L186.091813,17.3698478 Z M196.643761,26.0731474 L196.643761,26.4144569 L189.58632,26.4144569 L188.181665,22.796576 L178.006576,22.796576 L176.636087,26.4144569 L169.578646,26.4144569 L169.578646,26.0731474 L179.616696,2.52297679 L186.605711,2.52297679 L196.643761,26.0731474 Z" id="Fill-21" fill="#EA5B2E" mask="url(#mask-4)"></path>
            </g>
        </g>
    </g>
</svg>