<svg xmlns="http://www.w3.org/2000/svg" viewBox="0 0 286.74 51.92"><defs><style>.cls-1{fill:#ea5b2e;}.cls-2{fill:#fff;}</style></defs><title>logo_mocidadeina-blue</title><g id="Layer_2" data-name="Layer 2"><g id="Layer_1-2" data-name="Layer 1"><path class="cls-1" d="M178.27,46.61h-15V0h15Z"/><path class="cls-1" d="M232,46.61H218.91L199.33,24V46.61H185.6V0h13.07l19.58,23V0H232Z"/><path class="cls-1" d="M286.74,46.61H270.89l-2-6.58H252.6l-2,6.58H235.3L252.33,0h17.4ZM260.64,13l-4.93,16.61H265.8L260.94,13Z"/><path class="cls-2" d="M23.52,46.9c-2.36-1.62-2.63-4.38-2.49-7.75v-1c.2-4.31.67-7.82.67-11.19a21.79,21.79,0,0,0-.34-2.83c0-.13-.27-.67-.4-.61s-.27.34-.4.54c-3.44,4.51-4.25,9.77-4.38,16.17-.07,2.16-.07,4.45-.27,6.6-.13.74-.54,1-1.08,1a2.24,2.24,0,0,1-1.08-.34c-.13-.07-.34-.54-.61-.61H13c-.34,0-.74.07-1.08.07a.68.68,0,0,1-.67-.34,13.52,13.52,0,0,1-1.15-4.51,3,3,0,0,1,.07-.74c.74-5.19,1.55-11.25,2.29-16.31a2.68,2.68,0,0,0,.13-1.21c0-.27.07-.61.07-.88a.6.6,0,0,0-.4-.67c-.07,0-.13-.07-.27-.07-.4,0-.88.47-1.15.94a22.9,22.9,0,0,0-3,6.94A43.54,43.54,0,0,0,6.47,41.65c.07,1.62-1,3-1.35,4.51-.07.34-.4.4-.67.4a2.42,2.42,0,0,1-.74-.13c-1.15-.4-3.17-.4-3.44-2A22.88,22.88,0,0,1,0,40.7,99,99,0,0,1,1,29.65c.34-2.56.61-5,1.15-7.68.34-1.89,2.09-3.3,3.1-3.3a1.45,1.45,0,0,1,.94.4A5.4,5.4,0,0,1,8.09,21.3c.27.54.4.07.47-.13a13.63,13.63,0,0,1,2-1.89,3.6,3.6,0,0,1,2.29-1.08c1.15,0,2.22.88,2.76,2.49.13.34.27.74.54.74a.73.73,0,0,0,.47-.34c1-1.15,2.16-2.22,3.37-2.22a20.34,20.34,0,0,1,3.77.67c2.49.54,3.44,3.71,3.91,6.13a23.67,23.67,0,0,1,.47,4.85c0,3.37-.54,7.68-.67,11.05a4.26,4.26,0,0,0,1.42,2.83,2.25,2.25,0,0,0,1.48.54,2.07,2.07,0,0,0,1.28-.4,21.19,21.19,0,0,0,4.58-6.06,1.92,1.92,0,0,1,1.35-.88,1.23,1.23,0,0,1,.74.34A1.7,1.7,0,0,1,39,39.29a5.41,5.41,0,0,1-.74,2.43,15.82,15.82,0,0,1-2.83,4.38,10.48,10.48,0,0,1-7,2.9C26.62,49,25.2,48,23.52,46.9Z"/><path class="cls-2" d="M59.84,24.73a8.52,8.52,0,0,1-1.48,2.7,21.57,21.57,0,0,1-4.52,4.52,7.11,7.11,0,0,1-2.63,1.15.25.25,0,0,1-.07.2c-.2.74-.27,1.48-.4,2.16a2.77,2.77,0,0,0-.07.74v.27a2.55,2.55,0,0,1,0,1,3.41,3.41,0,0,0-.13.88,14.41,14.41,0,0,1-.61,2.29,2.14,2.14,0,0,0-.2.61,2.28,2.28,0,0,1-.4,1c-.13.4-.34.74-.47,1.08a8.62,8.62,0,0,1-.94,1.55,12.2,12.2,0,0,1-1.42,1.21l-.61.4a2.52,2.52,0,0,1-1.21.34,2.29,2.29,0,0,0-.67.07,1.68,1.68,0,0,1-.54.07,4.28,4.28,0,0,1-1.55-.34l-1.48-.4a3.48,3.48,0,0,1-1.35-.61,9.76,9.76,0,0,1-2.7-2.56,13.08,13.08,0,0,1-1.68-3.84,6.07,6.07,0,0,0-.2-1.08v-.34l-.2-1.62-.07-.27v-3.1a21.59,21.59,0,0,1,.4-3.1c.07-.81.27-1.62.4-2.36.07-.27.2-.61.34-1s.2-.74.34-1.15c0-.13.07-.27.07-.47a12.38,12.38,0,0,1,.47-2,1.5,1.5,0,0,0,.07-.61.37.37,0,0,1,.2-.34c.13,0,.13-.13.07-.27s-.13-.27.07-.34a.67.67,0,0,0,.4-.54c.07-.14.13-.27.27-.27s.07-.07.13-.2.54-.54.81-.88l.27-.2a5.53,5.53,0,0,1,1.15-1.35l.13-.13a12,12,0,0,1,2-1.15c.13,0,.2-.07.34,0a.9.9,0,0,0,.61-.07,1.33,1.33,0,0,1,.67-.13,1.87,1.87,0,0,1,.61.07l.2.13a2.12,2.12,0,0,1,.94.94,1.26,1.26,0,0,0,.4.47,4.94,4.94,0,0,1,1.08.94,1.79,1.79,0,0,0,.94.47,5.89,5.89,0,0,1,3,1.28,7.06,7.06,0,0,1,.74.54,4.78,4.78,0,0,1,.88,1.48,12.33,12.33,0,0,1,.4,1.68,1.45,1.45,0,0,1,0,.54c-.27.81-.4,1.62-.67,2.43,0,.13-.07.2-.07.34v.27A27.49,27.49,0,0,0,56.81,23a2.52,2.52,0,0,1,1.75-.67,1.88,1.88,0,0,1,.88.61A2.29,2.29,0,0,1,59.84,24.73Zm-13,10.92.61-2.36c-.13,0-.27-.07-.4-.07a5.52,5.52,0,0,1-4.11-2.83A10.75,10.75,0,0,1,41.78,26a5,5,0,0,1-.27.94A8.83,8.83,0,0,1,41,28.37a10.58,10.58,0,0,1-.67,1.89,7.16,7.16,0,0,0-.61,1.68,9.09,9.09,0,0,0-.27,1.89v.34a10.44,10.44,0,0,0,.07,1.41l.2,1.21a12.23,12.23,0,0,0,.74,3.1.21.21,0,0,1,.07.14,7.51,7.51,0,0,0,1,2.09c0,.07.07.13.13.2s.2.27.4.13a2.49,2.49,0,0,0,.74-.34,6.94,6.94,0,0,0,1.75-1.69,10.85,10.85,0,0,0,1.42-2l.4-1.15C46.57,36.79,46.63,36.12,46.84,35.65ZM45.76,23.38a6.18,6.18,0,0,0,.74,4.92,2.67,2.67,0,0,0,1.68,1l.2-1.15a5.74,5.74,0,0,0,.2-1.55,2.65,2.65,0,0,0-.47-2.09A1.69,1.69,0,0,0,47,23.59,3.93,3.93,0,0,0,45.76,23.38Z"/><path class="cls-2" d="M57.69,45.42A16.36,16.36,0,0,1,53,34a17.14,17.14,0,0,1,2.7-9.5A15.88,15.88,0,0,1,62.2,18.8a2.64,2.64,0,0,1,1.21-.27,2.12,2.12,0,0,1,2,1.68c.81,2.36,2,4.65,2,7.28a8.16,8.16,0,0,1-.07,1.28c-.2,1.55-.4,3.3-2.49,3.3-1.55,0-2.83-1.89-2.63-3.71a2.77,2.77,0,0,0-.07-.74c-.27.13-.74.27-.88.54A15.13,15.13,0,0,0,59,34a24.06,24.06,0,0,0-.27,3.17A13,13,0,0,0,60,41.92a3.24,3.24,0,0,0,2.7,1.89c.81,0,1.75-.67,3-2a7.7,7.7,0,0,1,.94-1.08,24.63,24.63,0,0,0,2.09-3.3A1.92,1.92,0,0,1,70,36.52a1.23,1.23,0,0,1,.74.34,1.7,1.7,0,0,1,.61,1.35,5.41,5.41,0,0,1-.74,2.43A15.82,15.82,0,0,1,67.79,45a6.44,6.44,0,0,1-2.16,1.48l-.94.4a7.92,7.92,0,0,1-2.09.34A7.73,7.73,0,0,1,57.69,45.42Z"/><path class="cls-2" d="M69.61,44.27c-2.29-3.91-2.49-8.69-1.62-13.55.2-1.28.13-5.8.94-6.87a2.28,2.28,0,0,1,2-1.15,10,10,0,0,1,4.31,1.68,4.08,4.08,0,0,1,1.42,2.36l.2.67c.81,2.7,0,6.27-.94,9.43l-.4,1.35a14.2,14.2,0,0,0-.4,3.3,3.11,3.11,0,0,0,.2,1.35,1.47,1.47,0,0,0,1.28.61A2.59,2.59,0,0,0,78,43a21.19,21.19,0,0,0,4.58-6.06A1.92,1.92,0,0,1,84,36.05a1.23,1.23,0,0,1,.74.34,1.7,1.7,0,0,1,.61,1.35,5.41,5.41,0,0,1-.74,2.43,15.82,15.82,0,0,1-2.83,4.38,8.32,8.32,0,0,1-5.53,2.16C72.65,46.7,70.56,45.89,69.61,44.27Zm4.45-25.07a2.08,2.08,0,0,1-.94-.47c-.4-.47-.74-1.08-.94-1.35a5.6,5.6,0,0,1-.2-1.75c.07-.34.4-.4.47-.74s.54-.54.94-.74A1,1,0,0,1,74,14l1.15.27c.27,0,.34.13.47.2.34.34.54.74.88,1.08a.88.88,0,0,1,.34.88c-.27,2.43-.67,2.83-1.35,2.83S74.53,19.21,74.06,19.21Z"/><path class="cls-2" d="M113.21,38.21a6.42,6.42,0,0,1-.61,2.43c-.81,2.09-1.55,4.31-2.29,5.26a7.84,7.84,0,0,1-5.19,2.29c-1.15,0-4.31-.54-5.05-1.68-1.21-1.62-1.35-5.19-1.48-8.29v-.07a5,5,0,0,0-.61,1c-1.28,3.23-6,6.81-9.1,6.47-4.45-.4-6.6-2.49-6.6-6.27a7.31,7.31,0,0,1,.07-1.21c.54-5.26,3.44-9.16,6.74-12.87a11.76,11.76,0,0,1,5.93-4c1.08-.2,1.82.4,2.7.81.47.27.67.27.67-.27.47-5.32,2.29-10.45,3.17-15.63A33.13,33.13,0,0,1,103.38.61a.79.79,0,0,1,.81-.61,1.51,1.51,0,0,1,.67.2c1.28.61,2.76.88,2.76,2.49a2.53,2.53,0,0,1-.07.67A30.59,30.59,0,0,0,107,9.91c0,6.13-1.62,12.2-1.35,18.33a82.49,82.49,0,0,1-.88,12.2l-.07.47a2.51,2.51,0,0,0,.34,2.43,1.55,1.55,0,0,0,2.22.13A19.83,19.83,0,0,0,111,37.4a1.59,1.59,0,0,1,1.15-.88c.2,0,.34.13.61.34A1.83,1.83,0,0,1,113.21,38.21ZM97.38,28c-.07-.13-.13-.4-.27-.4a.91.91,0,0,0-.61.13A10.36,10.36,0,0,0,95.36,29c-2.7,2.9-5.26,5.86-5.86,10,0,.2.07.47.07.74.2-.07.4-.07.54-.2C94.35,36.86,96.3,32.75,97.38,28Z"/><path class="cls-2" d="M125.88,42.05c-.4,3.23-.47,4.58-.67,7.82-.07,1-2.09,2.56-2.49,1.89-.13-.27-.13-.54-.27-.81a.69.69,0,0,0-.54-.34c-.13,0-.2.07-.34.07a8,8,0,0,1-1.62.27c-1.28,0-1.75-.88-1.82-2.83,0-1,.13-3.17.13-2.9,0-.34-.07-.54-.4-.54s-.88.27-1.89,1.08a2.42,2.42,0,0,1-1.68.54c-1.82,0-4.18-1.48-5.46-3.5a8.53,8.53,0,0,1-1.21-4.45,15,15,0,0,1,1.28-5.59,64.05,64.05,0,0,1,4.11-9c1.82-3.37,5.39-4,9.3-4a3.39,3.39,0,0,1,.81.13c2.9.88,4.25,2.76,4.31,5.8C127.64,31.2,126.42,36.59,125.88,42.05Zm-6.74-11.79c0-.07-.13-.47-.2-.94-.13.07-.34.07-.54.13-2.49,1.62-5.32,8.36-5.32,12.06a3.74,3.74,0,0,0,.13,1.28c.13.4.47.88.81.88a.62.62,0,0,0,.34-.2c1.75-1.82,3.84-3.44,4.31-6.06A57.79,57.79,0,0,0,119.14,30.26Z"/><path class="cls-2" d="M159.71,38.21a6.41,6.41,0,0,1-.61,2.43c-.81,2.09-1.55,4.31-2.29,5.26a7.84,7.84,0,0,1-5.19,2.29c-1.15,0-4.31-.54-5.05-1.68-1.21-1.62-1.35-5.19-1.48-8.29v-.07a5,5,0,0,0-.61,1c-1.28,3.23-6,6.81-9.1,6.47-4.45-.4-6.6-2.49-6.6-6.27a7.31,7.31,0,0,1,.07-1.21c.54-5.26,3.44-9.16,6.74-12.87a11.76,11.76,0,0,1,5.93-4c1.08-.2,1.82.4,2.7.81.47.27.67.27.67-.27.47-5.32,2.29-10.45,3.17-15.63A33.16,33.16,0,0,1,149.87.61a.79.79,0,0,1,.81-.61,1.51,1.51,0,0,1,.67.2c1.28.61,2.76.88,2.76,2.49a2.53,2.53,0,0,1-.07.67,30.59,30.59,0,0,0-.54,6.54c0,6.13-1.62,12.2-1.35,18.33a82.52,82.52,0,0,1-.88,12.2l-.07.47a2.51,2.51,0,0,0,.34,2.43,1.56,1.56,0,0,0,2.22.13,19.83,19.83,0,0,0,3.71-6.06,1.59,1.59,0,0,1,1.15-.88c.2,0,.34.13.61.34A1.84,1.84,0,0,1,159.71,38.21ZM143.88,28c-.07-.13-.13-.4-.27-.4a.91.91,0,0,0-.61.13A10.37,10.37,0,0,0,141.85,29c-2.7,2.9-5.26,5.86-5.86,10,0,.2.07.47.07.74.2-.07.4-.07.54-.2C140.84,36.86,142.8,32.75,143.88,28Z"/><path class="cls-2" d="M156.21,38.75a9.91,9.91,0,0,1-.27-2.43,35.4,35.4,0,0,1,.34-3.84c.74-5.32,3.37-9.64,7.41-13.75a5.26,5.26,0,0,1,3.57-1.82,4.15,4.15,0,0,1,3.17,1.82c.2.2.47.67.34.94-1.35,2.63-.61,5.73-2.7,8.36-1.35,1.75-1.89,4.11-3.91,5.39a3.71,3.71,0,0,0-2,3.17,4,4,0,0,0,1,2.56A3.64,3.64,0,0,0,166,40.57a5.22,5.22,0,0,0,3.5-1.62,32,32,0,0,0,2.49-2.7,1.66,1.66,0,0,1,1.15-.54.91.91,0,0,1,.54.13,1.23,1.23,0,0,1,.74,1.21,1.67,1.67,0,0,1-.07.54,13,13,0,0,1-7.08,8,4.79,4.79,0,0,1-2.16.47C161.33,46,157.08,42.05,156.21,38.75ZM164,30.53c2.22-2,3-4.78,3.91-7.55v-.13c0-.27-.13-.47-.34-.47a1.31,1.31,0,0,0-.94.61,16,16,0,0,0-3.3,7.21l.07.54Z"/></g></g></svg>